<svg width="1813" height="391" viewBox="0 0 1813 391" fill="none" xmlns="http://www.w3.org/2000/svg">
<path d="M398.5 228C431.7 198.4 447 167.667 450.5 156L451.5 330C451.5 373.5 497 370.5 503.5 370.5C508.7 372.9 505.667 377.5 503.5 379.5H349C332.167 374.333 308.6 365.3 349 370.5C389.4 375.7 398.833 344.667 398.5 328.5V228Z" fill="url(#paint0_linear_1_40)"/>
<path d="M562 119.422C576.8 213.022 509.167 226.422 473.5 221.422C577 253.422 629 182.422 621.5 119.422C614 56.4216 558.5 39.9216 541 34.9217C511 26.3502 470.667 35.3333 442 37C444.5 42.5 445 46.5 449.5 54.9217C461.5 47.9217 546 30.9217 562 119.422Z" fill="url(#paint1_linear_1_40)"/>
<path d="M6.72132 378C3.12133 378 3.26764 374.97 3.51271 373.5C4.01271 370.5 6.01271 370 8.22133 370C9.38799 370 15.7213 369.9 31.7213 369.5C49.0127 369.068 55.0547 341.333 55.7213 330C56.5547 258.667 58.2213 107 58.2213 71C57.0127 48.5 18.5547 32.1667 3.72131 33C-0.98729 33 -1.4873 26.5 3.72131 26.5H98.7213L268.221 238C261 291 272 310.824 278.721 323.5C288 341 307.221 366.833 316.721 378H306.221C232.555 285.667 84.5213 100.1 81.7213 96.5C79.3213 95.3 78.7213 96.6667 78.7213 97.5C78.388 163.333 77.9213 302 78.7213 330C79.5213 358 96.5127 370 106.721 369.5H129.221C134.013 370.5 134.013 377 129.221 378H6.72132Z" fill="url(#paint2_linear_1_40)"/>
<path d="M318.221 145.5C315.021 147.5 305.888 158.333 301.721 163.5V84C301.721 37 251.943 31 247.721 31C243.5 31 243 25 247.721 24C252.443 23 366.943 24 372.221 24C377.5 24 377 31 372.221 31C367.443 31 318.221 37.5 318.221 84V145.5Z" fill="url(#paint3_linear_1_40)"/>
<path d="M369 165.5C292 237 282.5 293 294.5 333C259.5 268.5 273.5 211.993 345.5 140.5C416.5 70 414.5 32.5 412.5 0C434 43 431.5 107.464 369 165.5Z" fill="url(#paint4_linear_1_40)"/>
<path d="M398.859 202.5C321.859 274 312.359 330 324.359 370C289.359 305.5 303.359 248.993 375.359 177.5C446.359 107 444.359 69.5 442.359 37C463.859 80 461.359 144.464 398.859 202.5Z" fill="#E36104"/>
<path d="M811.511 98.484V229H787.676L730.894 146.854H729.938V229H702.344V98.484H726.561L782.896 180.566H784.044V98.484H811.511ZM914.926 98.484H942.52V183.243C942.52 192.76 940.247 201.087 935.702 208.225C931.198 215.362 924.889 220.928 916.774 224.921C908.659 228.873 899.206 230.848 888.415 230.848C877.581 230.848 868.107 228.873 859.992 224.921C851.877 220.928 845.568 215.362 841.065 208.225C836.561 201.087 834.309 192.76 834.309 183.243V98.484H861.904V180.885C861.904 185.856 862.987 190.274 865.154 194.141C867.363 198.007 870.465 201.044 874.458 203.254C878.452 205.463 883.104 206.568 888.415 206.568C893.768 206.568 898.42 205.463 902.372 203.254C906.365 201.044 909.445 198.007 911.612 194.141C913.821 190.274 914.926 185.856 914.926 180.885V98.484ZM1074.39 98.484V229H1050.56L993.774 146.854H992.818V229H965.224V98.484H989.441L1045.78 180.566H1046.92V98.484H1074.39ZM1217.13 163.742C1217.13 177.975 1214.43 190.083 1209.03 200.067C1203.68 210.051 1196.37 217.678 1187.11 222.946C1177.89 228.172 1167.52 230.784 1156.01 230.784C1144.41 230.784 1134 228.15 1124.78 222.882C1115.56 217.614 1108.28 209.988 1102.93 200.004C1097.57 190.019 1094.9 177.932 1094.9 163.742C1094.9 149.509 1097.57 137.401 1102.93 127.417C1108.28 117.433 1115.56 109.828 1124.78 104.602C1134 99.3337 1144.41 96.6996 1156.01 96.6996C1167.52 96.6996 1177.89 99.3337 1187.11 104.602C1196.37 109.828 1203.68 117.433 1209.03 127.417C1214.43 137.401 1217.13 149.509 1217.13 163.742ZM1189.15 163.742C1189.15 154.523 1187.77 146.748 1185.01 140.417C1182.29 134.087 1178.44 129.286 1173.47 126.015C1168.5 122.743 1162.68 121.108 1156.01 121.108C1149.34 121.108 1143.52 122.743 1138.55 126.015C1133.58 129.286 1129.71 134.087 1126.95 140.417C1124.23 146.748 1122.87 154.523 1122.87 163.742C1122.87 172.961 1124.23 180.736 1126.95 187.067C1129.71 193.397 1133.58 198.198 1138.55 201.469C1143.52 204.741 1149.34 206.376 1156.01 206.376C1162.68 206.376 1168.5 204.741 1173.47 201.469C1178.44 198.198 1182.29 193.397 1185.01 187.067C1187.77 180.736 1189.15 172.961 1189.15 163.742ZM1279.1 229V98.484H1330.6C1340.49 98.484 1348.93 100.375 1355.9 104.156C1362.86 107.895 1368.17 113.099 1371.83 119.769C1375.52 126.397 1377.37 134.045 1377.37 142.712C1377.37 151.379 1375.5 159.026 1371.76 165.654C1368.03 172.282 1362.61 177.444 1355.51 181.14C1348.46 184.836 1339.92 186.684 1329.89 186.684H1297.07V164.57H1325.43C1330.74 164.57 1335.12 163.657 1338.56 161.83C1342.05 159.961 1344.64 157.39 1346.34 154.119C1348.08 150.805 1348.95 147.003 1348.95 142.712C1348.95 138.378 1348.08 134.597 1346.34 131.368C1344.64 128.097 1342.05 125.569 1338.56 123.784C1335.08 121.957 1330.66 121.044 1325.31 121.044H1306.7V229H1279.1ZM1422.89 98.484V229H1395.3V98.484H1422.89ZM1445.59 229V98.484H1497.09C1506.94 98.484 1515.35 100.247 1522.32 103.773C1529.33 107.257 1534.66 112.207 1538.32 118.622C1542.01 124.995 1543.86 132.494 1543.86 141.118C1543.86 149.785 1541.99 157.242 1538.25 163.487C1534.52 169.69 1529.1 174.448 1522 177.762C1514.95 181.076 1506.41 182.733 1496.38 182.733H1461.91V160.556H1491.92C1497.19 160.556 1501.57 159.833 1505.05 158.389C1508.54 156.944 1511.13 154.778 1512.83 151.889C1514.57 148.999 1515.44 145.409 1515.44 141.118C1515.44 136.785 1514.57 133.131 1512.83 130.157C1511.13 127.183 1508.51 124.931 1504.99 123.402C1501.5 121.83 1497.11 121.044 1491.8 121.044H1473.19V229H1445.59ZM1516.08 169.605L1548.51 229H1518.05L1486.32 169.605H1516.08ZM1563.36 229V98.484H1651.31V121.235H1590.96V152.335H1646.78V175.086H1590.96V206.249H1651.56V229H1563.36ZM1744.05 136.02C1743.54 130.879 1741.35 126.886 1737.49 124.039C1733.62 121.193 1728.37 119.769 1721.74 119.769C1717.24 119.769 1713.44 120.407 1710.34 121.681C1707.24 122.913 1704.86 124.634 1703.2 126.843C1701.59 129.052 1700.78 131.559 1700.78 134.363C1700.69 136.7 1701.18 138.739 1702.24 140.481C1703.35 142.223 1704.86 143.731 1706.77 145.006C1708.68 146.238 1710.89 147.321 1713.4 148.256C1715.9 149.148 1718.58 149.913 1721.43 150.55L1733.15 153.354C1738.85 154.629 1744.07 156.328 1748.83 158.453C1753.59 160.577 1757.71 163.19 1761.19 166.291C1764.68 169.393 1767.37 173.046 1769.29 177.252C1771.24 181.459 1772.24 186.281 1772.28 191.719C1772.24 199.706 1770.2 206.631 1766.16 212.494C1762.17 218.315 1756.39 222.84 1748.83 226.068C1741.31 229.255 1732.24 230.848 1721.62 230.848C1711.08 230.848 1701.9 229.234 1694.09 226.005C1686.31 222.776 1680.24 217.996 1675.86 211.666C1671.53 205.293 1669.25 197.412 1669.04 188.023H1695.74C1696.04 192.399 1697.29 196.052 1699.5 198.984C1701.76 201.873 1704.75 204.061 1708.49 205.548C1712.27 206.992 1716.54 207.715 1721.3 207.715C1725.97 207.715 1730.03 207.035 1733.47 205.675C1736.95 204.316 1739.65 202.425 1741.56 200.004C1743.48 197.582 1744.43 194.799 1744.43 191.655C1744.43 188.724 1743.56 186.259 1741.82 184.263C1740.12 182.266 1737.61 180.566 1734.3 179.164C1731.03 177.762 1727.01 176.488 1722.25 175.341L1708.04 171.772C1697.04 169.095 1688.35 164.91 1681.98 159.217C1675.61 153.524 1672.44 145.856 1672.48 136.211C1672.44 128.309 1674.54 121.405 1678.79 115.5C1683.08 109.594 1688.97 104.984 1696.44 101.67C1703.92 98.3566 1712.42 96.6996 1721.94 96.6996C1731.62 96.6996 1740.08 98.3566 1747.3 101.67C1754.56 104.984 1760.22 109.594 1764.25 115.5C1768.29 121.405 1770.37 128.245 1770.5 136.02H1744.05Z" fill="#ED771F"/>
<path d="M703.495 344V295.094H719.28C722.751 295.094 725.648 295.762 727.972 297.1C730.313 298.421 732.072 300.22 733.25 302.497C734.444 304.773 735.041 307.336 735.041 310.186C735.041 313.036 734.452 315.607 733.274 317.899C732.096 320.176 730.344 321.983 728.02 323.32C725.696 324.641 722.806 325.302 719.352 325.302H706.934V321.29H719.232C721.795 321.29 723.921 320.813 725.608 319.857C727.296 318.886 728.553 317.565 729.381 315.893C730.225 314.222 730.647 312.319 730.647 310.186C730.647 308.053 730.225 306.15 729.381 304.479C728.553 302.807 727.288 301.494 725.584 300.538C723.897 299.583 721.756 299.106 719.161 299.106H707.961V344H703.495ZM769.285 315.368L765.392 316.466C765.01 315.368 764.469 314.373 763.768 313.481C763.068 312.59 762.153 311.881 761.022 311.356C759.908 310.831 758.523 310.568 756.867 310.568C754.384 310.568 752.346 311.157 750.754 312.335C749.162 313.513 748.366 315.034 748.366 316.896C748.366 318.472 748.907 319.754 749.99 320.741C751.088 321.712 752.776 322.484 755.052 323.057L760.592 324.418C763.665 325.167 765.965 326.353 767.494 327.977C769.038 329.6 769.81 331.638 769.81 334.09C769.81 336.159 769.237 337.998 768.091 339.606C766.944 341.214 765.344 342.48 763.291 343.403C761.253 344.31 758.889 344.764 756.198 344.764C752.616 344.764 749.663 343.96 747.339 342.352C745.015 340.728 743.526 338.388 742.873 335.332L746.957 334.329C747.482 336.51 748.509 338.157 750.037 339.272C751.582 340.386 753.611 340.943 756.127 340.943C758.945 340.943 761.197 340.315 762.885 339.057C764.572 337.783 765.416 336.191 765.416 334.281C765.416 332.8 764.923 331.559 763.936 330.556C762.949 329.537 761.452 328.788 759.446 328.311L753.452 326.878C750.268 326.114 747.912 324.904 746.384 323.248C744.855 321.593 744.091 319.539 744.091 317.087C744.091 315.065 744.641 313.29 745.739 311.762C746.837 310.218 748.35 309.008 750.276 308.132C752.203 307.257 754.399 306.819 756.867 306.819C760.226 306.819 762.909 307.583 764.915 309.111C766.936 310.624 768.393 312.709 769.285 315.368ZM779.165 344V307.32H783.44V344H779.165ZM781.338 301.016C780.462 301.016 779.714 300.722 779.093 300.133C778.472 299.528 778.162 298.803 778.162 297.959C778.162 297.116 778.472 296.399 779.093 295.81C779.714 295.205 780.462 294.903 781.338 294.903C782.214 294.903 782.962 295.205 783.583 295.81C784.204 296.399 784.514 297.116 784.514 297.959C784.514 298.803 784.204 299.528 783.583 300.133C782.962 300.722 782.214 301.016 781.338 301.016ZM809.009 344.764C805.729 344.764 802.872 343.944 800.436 342.305C798.016 340.665 796.138 338.42 794.8 335.57C793.463 332.721 792.794 329.473 792.794 325.827C792.794 322.15 793.471 318.878 794.824 316.013C796.193 313.147 798.088 310.902 800.508 309.279C802.928 307.639 805.737 306.819 808.937 306.819C811.389 306.819 813.61 307.296 815.6 308.252C817.59 309.191 819.23 310.52 820.519 312.24C821.825 313.943 822.644 315.933 822.979 318.21H818.68C818.235 316.14 817.16 314.373 815.457 312.908C813.769 311.428 811.62 310.687 809.009 310.687C806.669 310.687 804.599 311.324 802.8 312.598C801.001 313.856 799.592 315.615 798.573 317.875C797.57 320.12 797.069 322.723 797.069 325.684C797.069 328.661 797.563 331.296 798.55 333.588C799.537 335.865 800.922 337.648 802.705 338.937C804.504 340.227 806.605 340.872 809.009 340.872C810.633 340.872 812.113 340.569 813.451 339.964C814.804 339.343 815.934 338.468 816.842 337.337C817.765 336.207 818.386 334.862 818.704 333.302H823.003C822.684 335.515 821.896 337.489 820.639 339.224C819.397 340.943 817.781 342.297 815.791 343.284C813.817 344.271 811.556 344.764 809.009 344.764ZM846.369 344.764C843.201 344.764 840.399 343.96 837.963 342.352C835.544 340.744 833.649 338.524 832.28 335.69C830.911 332.84 830.226 329.553 830.226 325.827C830.226 322.07 830.911 318.767 832.28 315.917C833.649 313.052 835.544 310.823 837.963 309.231C840.399 307.623 843.201 306.819 846.369 306.819C849.537 306.819 852.331 307.623 854.751 309.231C857.171 310.839 859.065 313.067 860.434 315.917C861.82 318.767 862.512 322.07 862.512 325.827C862.512 329.553 861.827 332.84 860.458 335.69C859.089 338.524 857.187 340.744 854.751 342.352C852.331 343.96 849.537 344.764 846.369 344.764ZM846.369 340.872C848.916 340.872 851.074 340.187 852.841 338.818C854.608 337.449 855.945 335.626 856.852 333.35C857.776 331.073 858.238 328.566 858.238 325.827C858.238 323.089 857.776 320.574 856.852 318.281C855.945 315.989 854.608 314.15 852.841 312.765C851.074 311.38 848.916 310.687 846.369 310.687C843.838 310.687 841.681 311.38 839.898 312.765C838.131 314.15 836.785 315.989 835.862 318.281C834.955 320.574 834.501 323.089 834.501 325.827C834.501 328.566 834.955 331.073 835.862 333.35C836.785 335.626 838.131 337.449 839.898 338.818C841.665 340.187 843.822 340.872 846.369 340.872ZM844.387 302.234L850.5 291.392H855.539L848.208 302.234H844.387ZM876.094 295.094V344H871.843V295.094H876.094ZM901.598 344.764C898.43 344.764 895.628 343.96 893.192 342.352C890.772 340.744 888.878 338.524 887.508 335.69C886.139 332.84 885.455 329.553 885.455 325.827C885.455 322.07 886.139 318.767 887.508 315.917C888.878 313.052 890.772 310.823 893.192 309.231C895.628 307.623 898.43 306.819 901.598 306.819C904.766 306.819 907.56 307.623 909.979 309.231C912.399 310.839 914.294 313.067 915.663 315.917C917.048 318.767 917.74 322.07 917.74 325.827C917.74 329.553 917.056 332.84 915.687 335.69C914.318 338.524 912.415 340.744 909.979 342.352C907.56 343.96 904.766 344.764 901.598 344.764ZM901.598 340.872C904.145 340.872 906.302 340.187 908.069 338.818C909.836 337.449 911.173 335.626 912.081 333.35C913.004 331.073 913.466 328.566 913.466 325.827C913.466 323.089 913.004 320.574 912.081 318.281C911.173 315.989 909.836 314.15 908.069 312.765C906.302 311.38 904.145 310.687 901.598 310.687C899.066 310.687 896.909 311.38 895.126 312.765C893.359 314.15 892.014 315.989 891.09 318.281C890.183 320.574 889.729 323.089 889.729 325.827C889.729 328.566 890.183 331.073 891.09 333.35C892.014 335.626 893.359 337.449 895.126 338.818C896.893 340.187 899.05 340.872 901.598 340.872ZM941.065 358.519C938.566 358.519 936.377 358.193 934.498 357.54C932.62 356.903 931.036 356.028 929.746 354.913C928.457 353.799 927.454 352.549 926.737 351.164L930.224 348.872C930.749 349.795 931.45 350.702 932.325 351.594C933.217 352.485 934.371 353.226 935.788 353.815C937.221 354.404 938.98 354.698 941.065 354.698C944.313 354.698 946.932 353.886 948.922 352.262C950.928 350.639 951.931 348.115 951.931 344.693V336.43H951.549C951.055 337.544 950.347 338.659 949.423 339.773C948.5 340.872 947.29 341.787 945.793 342.519C944.313 343.252 942.474 343.618 940.277 343.618C937.348 343.618 934.745 342.894 932.468 341.445C930.208 339.996 928.425 337.927 927.119 335.236C925.83 332.53 925.185 329.306 925.185 325.565C925.185 321.855 925.814 318.592 927.072 315.774C928.345 312.956 930.12 310.759 932.397 309.183C934.673 307.607 937.324 306.819 940.349 306.819C942.594 306.819 944.456 307.217 945.937 308.013C947.417 308.793 948.603 309.764 949.495 310.926C950.402 312.088 951.111 313.219 951.62 314.317H952.05V307.32H956.205V344.955C956.205 348.06 955.544 350.615 954.223 352.621C952.902 354.627 951.103 356.107 948.826 357.062C946.55 358.033 943.963 358.519 941.065 358.519ZM940.779 339.725C943.135 339.725 945.149 339.16 946.82 338.03C948.492 336.884 949.773 335.244 950.665 333.111C951.556 330.977 952.002 328.438 952.002 325.493C952.002 322.627 951.564 320.088 950.689 317.875C949.813 315.647 948.54 313.895 946.868 312.622C945.212 311.332 943.183 310.687 940.779 310.687C938.327 310.687 936.257 311.348 934.57 312.669C932.882 313.991 931.609 315.774 930.749 318.019C929.889 320.247 929.46 322.739 929.46 325.493C929.46 328.295 929.897 330.77 930.773 332.92C931.649 335.053 932.93 336.725 934.618 337.934C936.305 339.128 938.359 339.725 940.779 339.725ZM981.715 344.764C978.547 344.764 975.745 343.96 973.309 342.352C970.889 340.744 968.995 338.524 967.626 335.69C966.257 332.84 965.572 329.553 965.572 325.827C965.572 322.07 966.257 318.767 967.626 315.917C968.995 313.052 970.889 310.823 973.309 309.231C975.745 307.623 978.547 306.819 981.715 306.819C984.883 306.819 987.677 307.623 990.097 309.231C992.517 310.839 994.411 313.067 995.78 315.917C997.165 318.767 997.858 322.07 997.858 325.827C997.858 329.553 997.173 332.84 995.804 335.69C994.435 338.524 992.532 340.744 990.097 342.352C987.677 343.96 984.883 344.764 981.715 344.764ZM981.715 340.872C984.262 340.872 986.419 340.187 988.186 338.818C989.953 337.449 991.291 335.626 992.198 333.35C993.122 331.073 993.583 328.566 993.583 325.827C993.583 323.089 993.122 320.574 992.198 318.281C991.291 315.989 989.953 314.15 988.186 312.765C986.419 311.38 984.262 310.687 981.715 310.687C979.184 310.687 977.026 311.38 975.243 312.765C973.476 314.15 972.131 315.989 971.208 318.281C970.3 320.574 969.847 323.089 969.847 325.827C969.847 328.566 970.3 331.073 971.208 333.35C972.131 335.626 973.476 337.449 975.243 338.818C977.011 340.187 979.168 340.872 981.715 340.872ZM1065.29 310.377H1060.8C1060.47 308.705 1059.86 307.161 1058.98 305.744C1058.12 304.311 1057.04 303.062 1055.74 301.995C1054.43 300.928 1052.95 300.101 1051.3 299.512C1049.64 298.923 1047.85 298.628 1045.92 298.628C1042.83 298.628 1040.02 299.432 1037.47 301.04C1034.94 302.648 1032.91 305.012 1031.38 308.132C1029.87 311.237 1029.11 315.042 1029.11 319.547C1029.11 324.084 1029.87 327.905 1031.38 331.009C1032.91 334.114 1034.94 336.47 1037.47 338.078C1040.02 339.67 1042.83 340.466 1045.92 340.466C1047.85 340.466 1049.64 340.171 1051.3 339.582C1052.95 338.993 1054.43 338.173 1055.74 337.123C1057.04 336.056 1058.12 334.806 1058.98 333.373C1059.86 331.941 1060.47 330.388 1060.8 328.717H1065.29C1064.89 330.962 1064.14 333.055 1063.04 334.997C1061.96 336.924 1060.58 338.611 1058.89 340.06C1057.22 341.509 1055.29 342.639 1053.11 343.451C1050.93 344.263 1048.53 344.669 1045.92 344.669C1041.81 344.669 1038.17 343.642 1034.99 341.588C1031.8 339.519 1029.3 336.605 1027.49 332.848C1025.69 329.091 1024.79 324.657 1024.79 319.547C1024.79 314.437 1025.69 310.003 1027.49 306.246C1029.3 302.489 1031.8 299.583 1034.99 297.53C1038.17 295.46 1041.81 294.425 1045.92 294.425C1048.53 294.425 1050.93 294.831 1053.11 295.643C1055.29 296.439 1057.22 297.569 1058.89 299.034C1060.58 300.483 1061.96 302.17 1063.04 304.097C1064.14 306.023 1064.89 308.116 1065.29 310.377ZM1079.15 295.094V344H1074.89V295.094H1079.15ZM1090.44 344V307.32H1094.71V344H1090.44ZM1090.63 302.234L1096.74 291.392H1101.78L1094.45 302.234H1090.63ZM1110.21 321.075V344H1105.96V307.32H1110.09V313.075H1110.47C1111.33 311.197 1112.67 309.692 1114.48 308.562C1116.31 307.416 1118.57 306.843 1121.26 306.843C1123.73 306.843 1125.9 307.36 1127.76 308.395C1129.64 309.414 1131.09 310.918 1132.13 312.908C1133.18 314.898 1133.7 317.342 1133.7 320.239V344H1129.45V320.502C1129.45 317.493 1128.61 315.113 1126.92 313.362C1125.25 311.611 1123.01 310.735 1120.19 310.735C1118.26 310.735 1116.55 311.149 1115.05 311.977C1113.56 312.805 1112.37 313.999 1111.5 315.559C1110.64 317.103 1110.21 318.942 1110.21 321.075ZM1144.95 344V307.32H1149.22V344H1144.95ZM1147.12 301.016C1146.24 301.016 1145.5 300.722 1144.87 300.133C1144.25 299.528 1143.94 298.803 1143.94 297.959C1143.94 297.116 1144.25 296.399 1144.87 295.81C1145.5 295.205 1146.24 294.903 1147.12 294.903C1148 294.903 1148.74 295.205 1149.36 295.81C1149.99 296.399 1150.3 297.116 1150.3 297.959C1150.3 298.803 1149.99 299.528 1149.36 300.133C1148.74 300.722 1148 301.016 1147.12 301.016ZM1174.79 344.764C1171.51 344.764 1168.65 343.944 1166.22 342.305C1163.8 340.665 1161.92 338.42 1160.58 335.57C1159.24 332.721 1158.58 329.473 1158.58 325.827C1158.58 322.15 1159.25 318.878 1160.61 316.013C1161.97 313.147 1163.87 310.902 1166.29 309.279C1168.71 307.639 1171.52 306.819 1174.72 306.819C1177.17 306.819 1179.39 307.296 1181.38 308.252C1183.37 309.191 1185.01 310.52 1186.3 312.24C1187.61 313.943 1188.43 315.933 1188.76 318.21H1184.46C1184.02 316.14 1182.94 314.373 1181.24 312.908C1179.55 311.428 1177.4 310.687 1174.79 310.687C1172.45 310.687 1170.38 311.324 1168.58 312.598C1166.78 313.856 1165.37 315.615 1164.35 317.875C1163.35 320.12 1162.85 322.723 1162.85 325.684C1162.85 328.661 1163.34 331.296 1164.33 333.588C1165.32 335.865 1166.7 337.648 1168.49 338.937C1170.29 340.227 1172.39 340.872 1174.79 340.872C1176.41 340.872 1177.89 340.569 1179.23 339.964C1180.59 339.343 1181.72 338.468 1182.62 337.337C1183.55 336.207 1184.17 334.862 1184.49 333.302H1188.78C1188.47 335.515 1187.68 337.489 1186.42 339.224C1185.18 340.943 1183.56 342.297 1181.57 343.284C1179.6 344.271 1177.34 344.764 1174.79 344.764ZM1212.15 344.764C1208.98 344.764 1206.18 343.96 1203.74 342.352C1201.32 340.744 1199.43 338.524 1198.06 335.69C1196.69 332.84 1196.01 329.553 1196.01 325.827C1196.01 322.07 1196.69 318.767 1198.06 315.917C1199.43 313.052 1201.32 310.823 1203.74 309.231C1206.18 307.623 1208.98 306.819 1212.15 306.819C1215.32 306.819 1218.11 307.623 1220.53 309.231C1222.95 310.839 1224.85 313.067 1226.22 315.917C1227.6 318.767 1228.29 322.07 1228.29 325.827C1228.29 329.553 1227.61 332.84 1226.24 335.69C1224.87 338.524 1222.97 340.744 1220.53 342.352C1218.11 343.96 1215.32 344.764 1212.15 344.764ZM1212.15 340.872C1214.7 340.872 1216.85 340.187 1218.62 338.818C1220.39 337.449 1221.73 335.626 1222.63 333.35C1223.56 331.073 1224.02 328.566 1224.02 325.827C1224.02 323.089 1223.56 320.574 1222.63 318.281C1221.73 315.989 1220.39 314.15 1218.62 312.765C1216.85 311.38 1214.7 310.687 1212.15 310.687C1209.62 310.687 1207.46 311.38 1205.68 312.765C1203.91 314.15 1202.57 315.989 1201.64 318.281C1200.74 320.574 1200.28 323.089 1200.28 325.827C1200.28 328.566 1200.74 331.073 1201.64 333.35C1202.57 335.626 1203.91 337.449 1205.68 338.818C1207.45 340.187 1209.6 340.872 1212.15 340.872ZM1269.62 344.669C1266.61 344.669 1263.99 344.088 1261.74 342.925C1259.5 341.747 1257.76 340.147 1256.51 338.126C1255.27 336.104 1254.65 333.819 1254.65 331.272C1254.65 329.425 1255.03 327.762 1255.77 326.281C1256.54 324.785 1257.64 323.368 1259.07 322.03C1260.5 320.677 1262.24 319.276 1264.27 317.828L1271.37 312.55C1273.05 311.34 1274.34 310.154 1275.21 308.992C1276.1 307.814 1276.55 306.373 1276.55 304.67C1276.55 303.03 1275.93 301.565 1274.69 300.276C1273.46 298.97 1271.87 298.318 1269.91 298.318C1268.54 298.318 1267.32 298.66 1266.23 299.344C1265.17 300.029 1264.31 300.921 1263.68 302.019C1263.06 303.102 1262.75 304.24 1262.75 305.434C1262.75 306.548 1263.03 307.671 1263.61 308.801C1264.18 309.915 1264.95 311.093 1265.92 312.335C1266.89 313.561 1267.98 314.914 1269.17 316.395L1291.52 344H1286.36L1266.88 320.096C1265.24 318.09 1263.78 316.299 1262.51 314.723C1261.23 313.131 1260.23 311.603 1259.5 310.138C1258.77 308.658 1258.4 307.074 1258.4 305.386C1258.4 303.301 1258.89 301.446 1259.86 299.822C1260.83 298.182 1262.17 296.893 1263.87 295.954C1265.59 295.014 1267.55 294.545 1269.77 294.545C1272.03 294.545 1273.99 295.006 1275.64 295.93C1277.31 296.853 1278.6 298.079 1279.51 299.607C1280.43 301.135 1280.9 302.823 1280.9 304.67C1280.9 306.883 1280.32 308.841 1279.18 310.544C1278.05 312.248 1276.4 313.919 1274.23 315.559L1265.35 322.198C1262.91 324.028 1261.24 325.724 1260.33 327.284C1259.43 328.844 1258.97 330.173 1258.97 331.272C1258.97 332.991 1259.42 334.575 1260.31 336.024C1261.2 337.473 1262.44 338.635 1264.01 339.511C1265.6 340.386 1267.43 340.832 1269.48 340.848C1271.52 340.832 1273.44 340.426 1275.24 339.63C1277.03 338.818 1278.64 337.664 1280.06 336.167C1281.49 334.671 1282.64 332.88 1283.5 330.794C1284.37 328.709 1284.88 326.385 1285.03 323.821L1289.16 323.869C1289.09 326.496 1288.74 328.725 1288.08 330.556C1287.45 332.37 1286.71 333.867 1285.89 335.045C1285.06 336.223 1284.33 337.17 1283.71 337.887C1283.54 338.126 1283.36 338.364 1283.19 338.603C1283.01 338.842 1282.83 339.081 1282.64 339.32C1281.05 341.071 1279.06 342.4 1276.69 343.307C1274.34 344.215 1271.98 344.669 1269.62 344.669ZM1318.1 344V295.094H1333.88C1337.36 295.094 1340.25 295.762 1342.58 297.1C1344.92 298.421 1346.68 300.22 1347.85 302.497C1349.05 304.773 1349.65 307.336 1349.65 310.186C1349.65 313.036 1349.06 315.607 1347.88 317.899C1346.7 320.176 1344.95 321.983 1342.62 323.32C1340.3 324.641 1337.41 325.302 1333.96 325.302H1321.54V321.29H1333.84C1336.4 321.29 1338.53 320.813 1340.21 319.857C1341.9 318.886 1343.16 317.565 1343.99 315.893C1344.83 314.222 1345.25 312.319 1345.25 310.186C1345.25 308.053 1344.83 306.15 1343.99 304.479C1343.16 302.807 1341.89 301.494 1340.19 300.538C1338.5 299.583 1336.36 299.106 1333.77 299.106H1322.57V344H1318.1ZM1383.89 315.368L1380 316.466C1379.61 315.368 1379.07 314.373 1378.37 313.481C1377.67 312.59 1376.76 311.881 1375.63 311.356C1374.51 310.831 1373.13 310.568 1371.47 310.568C1368.99 310.568 1366.95 311.157 1365.36 312.335C1363.77 313.513 1362.97 315.034 1362.97 316.896C1362.97 318.472 1363.51 319.754 1364.59 320.741C1365.69 321.712 1367.38 322.484 1369.66 323.057L1375.2 324.418C1378.27 325.167 1380.57 326.353 1382.1 327.977C1383.64 329.6 1384.41 331.638 1384.41 334.09C1384.41 336.159 1383.84 337.998 1382.7 339.606C1381.55 341.214 1379.95 342.48 1377.9 343.403C1375.86 344.31 1373.49 344.764 1370.8 344.764C1367.22 344.764 1364.27 343.96 1361.94 342.352C1359.62 340.728 1358.13 338.388 1357.48 335.332L1361.56 334.329C1362.09 336.51 1363.11 338.157 1364.64 339.272C1366.19 340.386 1368.22 340.943 1370.73 340.943C1373.55 340.943 1375.8 340.315 1377.49 339.057C1379.18 337.783 1380.02 336.191 1380.02 334.281C1380.02 332.8 1379.53 331.559 1378.54 330.556C1377.55 329.537 1376.06 328.788 1374.05 328.311L1368.06 326.878C1364.87 326.114 1362.52 324.904 1360.99 323.248C1359.46 321.593 1358.7 319.539 1358.7 317.087C1358.7 315.065 1359.25 313.29 1360.34 311.762C1361.44 310.218 1362.95 309.008 1364.88 308.132C1366.81 307.257 1369 306.819 1371.47 306.819C1374.83 306.819 1377.51 307.583 1379.52 309.111C1381.54 310.624 1383 312.709 1383.89 315.368ZM1393.77 344V307.32H1398.04V344H1393.77ZM1395.94 301.016C1395.07 301.016 1394.32 300.722 1393.7 300.133C1393.08 299.528 1392.77 298.803 1392.77 297.959C1392.77 297.116 1393.08 296.399 1393.7 295.81C1394.32 295.205 1395.07 294.903 1395.94 294.903C1396.82 294.903 1397.57 295.205 1398.19 295.81C1398.81 296.399 1399.12 297.116 1399.12 297.959C1399.12 298.803 1398.81 299.528 1398.19 300.133C1397.57 300.722 1396.82 301.016 1395.94 301.016ZM1423.61 344.764C1420.33 344.764 1417.48 343.944 1415.04 342.305C1412.62 340.665 1410.74 338.42 1409.41 335.57C1408.07 332.721 1407.4 329.473 1407.4 325.827C1407.4 322.15 1408.08 318.878 1409.43 316.013C1410.8 313.147 1412.69 310.902 1415.11 309.279C1417.53 307.639 1420.34 306.819 1423.54 306.819C1425.99 306.819 1428.21 307.296 1430.2 308.252C1432.19 309.191 1433.83 310.52 1435.12 312.24C1436.43 313.943 1437.25 315.933 1437.58 318.21H1433.29C1432.84 316.14 1431.76 314.373 1430.06 312.908C1428.37 311.428 1426.22 310.687 1423.61 310.687C1421.27 310.687 1419.2 311.324 1417.4 312.598C1415.61 313.856 1414.2 315.615 1413.18 317.875C1412.18 320.12 1411.67 322.723 1411.67 325.684C1411.67 328.661 1412.17 331.296 1413.15 333.588C1414.14 335.865 1415.53 337.648 1417.31 338.937C1419.11 340.227 1421.21 340.872 1423.61 340.872C1425.24 340.872 1426.72 340.569 1428.06 339.964C1429.41 339.343 1430.54 338.468 1431.45 337.337C1432.37 336.207 1432.99 334.862 1433.31 333.302H1437.61C1437.29 335.515 1436.5 337.489 1435.24 339.224C1434 340.943 1432.39 342.297 1430.4 343.284C1428.42 344.271 1426.16 344.764 1423.61 344.764ZM1460.97 344.764C1457.81 344.764 1455 343.96 1452.57 342.352C1450.15 340.744 1448.25 338.524 1446.88 335.69C1445.52 332.84 1444.83 329.553 1444.83 325.827C1444.83 322.07 1445.52 318.767 1446.88 315.917C1448.25 313.052 1450.15 310.823 1452.57 309.231C1455 307.623 1457.81 306.819 1460.97 306.819C1464.14 306.819 1466.94 307.623 1469.36 309.231C1471.78 310.839 1473.67 313.067 1475.04 315.917C1476.42 318.767 1477.12 322.07 1477.12 325.827C1477.12 329.553 1476.43 332.84 1475.06 335.69C1473.69 338.524 1471.79 340.744 1469.36 342.352C1466.94 343.96 1464.14 344.764 1460.97 344.764ZM1460.97 340.872C1463.52 340.872 1465.68 340.187 1467.45 338.818C1469.21 337.449 1470.55 335.626 1471.46 333.35C1472.38 331.073 1472.84 328.566 1472.84 325.827C1472.84 323.089 1472.38 320.574 1471.46 318.281C1470.55 315.989 1469.21 314.15 1467.45 312.765C1465.68 311.38 1463.52 310.687 1460.97 310.687C1458.44 310.687 1456.29 311.38 1454.5 312.765C1452.74 314.15 1451.39 315.989 1450.47 318.281C1449.56 320.574 1449.11 323.089 1449.11 325.827C1449.11 328.566 1449.56 331.073 1450.47 333.35C1451.39 335.626 1452.74 337.449 1454.5 338.818C1456.27 340.187 1458.43 340.872 1460.97 340.872ZM1500.9 307.32V311.022H1483.39V307.32H1500.9ZM1488.86 298.533H1493.13V334.424C1493.13 335.952 1493.4 337.154 1493.92 338.03C1494.45 338.89 1495.13 339.503 1495.98 339.869C1496.82 340.219 1497.72 340.394 1498.67 340.394C1499.23 340.394 1499.71 340.362 1500.11 340.299C1500.51 340.219 1500.86 340.139 1501.16 340.06L1502.07 343.904C1501.65 344.064 1501.14 344.207 1500.54 344.334C1499.93 344.478 1499.18 344.549 1498.29 344.549C1496.73 344.549 1495.23 344.207 1493.78 343.522C1492.35 342.838 1491.17 341.819 1490.24 340.466C1489.32 339.113 1488.86 337.433 1488.86 335.427V298.533ZM1524.98 344.764C1521.56 344.764 1518.6 343.968 1516.1 342.376C1513.6 340.768 1511.67 338.547 1510.3 335.714C1508.94 332.864 1508.27 329.584 1508.27 325.875C1508.27 322.182 1508.94 318.902 1510.3 316.037C1511.67 313.155 1513.55 310.902 1515.96 309.279C1518.38 307.639 1521.17 306.819 1524.34 306.819C1526.33 306.819 1528.25 307.185 1530.09 307.917C1531.94 308.634 1533.6 309.74 1535.06 311.237C1536.54 312.717 1537.71 314.588 1538.57 316.848C1539.43 319.093 1539.86 321.752 1539.86 324.824V326.926H1511.21V323.177H1535.52C1535.52 320.821 1535.04 318.703 1534.08 316.825C1533.14 314.93 1531.83 313.434 1530.14 312.335C1528.47 311.237 1526.54 310.687 1524.34 310.687C1522.02 310.687 1519.97 311.308 1518.2 312.55C1516.44 313.792 1515.05 315.432 1514.05 317.469C1513.06 319.507 1512.56 321.736 1512.54 324.156V326.4C1512.54 329.314 1513.04 331.861 1514.05 334.042C1515.07 336.207 1516.51 337.887 1518.37 339.081C1520.23 340.275 1522.44 340.872 1524.98 340.872C1526.72 340.872 1528.24 340.601 1529.55 340.06C1530.87 339.519 1531.97 338.794 1532.86 337.887C1533.77 336.963 1534.46 335.952 1534.92 334.854L1538.95 336.167C1538.4 337.712 1537.48 339.136 1536.21 340.442C1534.95 341.747 1533.37 342.798 1531.48 343.594C1529.6 344.374 1527.44 344.764 1524.98 344.764ZM1549.23 344V307.32H1553.36V312.956H1553.67C1554.4 311.109 1555.68 309.621 1557.49 308.49C1559.32 307.344 1561.39 306.771 1563.7 306.771C1564.05 306.771 1564.44 306.779 1564.87 306.795C1565.3 306.811 1565.66 306.827 1565.94 306.843V311.165C1565.75 311.133 1565.42 311.085 1564.94 311.022C1564.46 310.958 1563.95 310.926 1563.39 310.926C1561.48 310.926 1559.78 311.332 1558.28 312.144C1556.8 312.94 1555.63 314.047 1554.77 315.463C1553.91 316.88 1553.48 318.496 1553.48 320.311V344H1549.23ZM1583.44 344.836C1581.23 344.836 1579.21 344.406 1577.38 343.546C1575.55 342.671 1574.09 341.413 1573.01 339.773C1571.92 338.118 1571.38 336.112 1571.38 333.755C1571.38 331.941 1571.73 330.412 1572.41 329.171C1573.09 327.929 1574.07 326.91 1575.32 326.114C1576.58 325.318 1578.07 324.689 1579.79 324.227C1581.51 323.766 1583.4 323.408 1585.47 323.153C1587.53 322.898 1589.26 322.675 1590.68 322.484C1592.11 322.293 1593.2 321.991 1593.95 321.577C1594.7 321.163 1595.07 320.494 1595.07 319.571V318.711C1595.07 316.212 1594.32 314.246 1592.83 312.813C1591.35 311.364 1589.21 310.64 1586.43 310.64C1583.78 310.64 1581.63 311.221 1579.96 312.383C1578.3 313.545 1577.14 314.914 1576.47 316.49L1572.43 315.034C1573.26 313.028 1574.41 311.428 1575.87 310.234C1577.34 309.024 1578.98 308.156 1580.79 307.631C1582.61 307.09 1584.45 306.819 1586.31 306.819C1587.71 306.819 1589.17 307.002 1590.68 307.368C1592.21 307.734 1593.62 308.371 1594.93 309.279C1596.23 310.17 1597.29 311.42 1598.1 313.028C1598.92 314.62 1599.32 316.642 1599.32 319.093V344H1595.07V338.197H1594.81C1594.3 339.28 1593.54 340.33 1592.54 341.349C1591.54 342.368 1590.28 343.204 1588.77 343.857C1587.26 344.509 1585.48 344.836 1583.44 344.836ZM1584.02 340.943C1586.28 340.943 1588.23 340.442 1589.89 339.439C1591.55 338.436 1592.82 337.107 1593.71 335.451C1594.62 333.779 1595.07 331.941 1595.07 329.935V324.633C1594.75 324.936 1594.22 325.206 1593.47 325.445C1592.74 325.684 1591.89 325.899 1590.92 326.09C1589.96 326.265 1589.01 326.416 1588.05 326.544C1587.1 326.671 1586.24 326.783 1585.47 326.878C1583.4 327.133 1581.64 327.531 1580.17 328.072C1578.71 328.613 1577.58 329.362 1576.8 330.317C1576.02 331.256 1575.63 332.466 1575.63 333.947C1575.63 336.175 1576.43 337.903 1578.02 339.128C1579.61 340.338 1581.61 340.943 1584.02 340.943ZM1610.63 357.755V307.32H1614.76V314.317H1615.26C1615.77 313.219 1616.47 312.096 1617.36 310.95C1618.26 309.788 1619.43 308.809 1620.9 308.013C1622.38 307.217 1624.24 306.819 1626.49 306.819C1629.51 306.819 1632.15 307.615 1634.41 309.207C1636.69 310.783 1638.46 312.996 1639.72 315.846C1640.99 318.679 1641.63 321.983 1641.63 325.756C1641.63 329.545 1640.99 332.864 1639.72 335.714C1638.46 338.563 1636.69 340.784 1634.41 342.376C1632.15 343.968 1629.53 344.764 1626.53 344.764C1624.32 344.764 1622.47 344.366 1620.97 343.57C1619.49 342.774 1618.29 341.795 1617.36 340.633C1616.46 339.455 1615.76 338.309 1615.26 337.194H1614.88V357.755H1610.63ZM1614.83 325.684C1614.83 328.645 1615.27 331.272 1616.15 333.564C1617.04 335.841 1618.31 337.632 1619.97 338.937C1621.64 340.227 1623.66 340.872 1626.03 340.872C1628.47 340.872 1630.52 340.203 1632.19 338.866C1633.88 337.513 1635.16 335.69 1636.04 333.397C1636.93 331.105 1637.38 328.534 1637.38 325.684C1637.38 322.866 1636.94 320.327 1636.06 318.066C1635.2 315.806 1633.93 314.015 1632.24 312.693C1630.55 311.356 1628.48 310.687 1626.03 310.687C1623.64 310.687 1621.61 311.332 1619.94 312.622C1618.27 313.895 1617 315.662 1616.12 317.923C1615.26 320.168 1614.83 322.755 1614.83 325.684ZM1665.78 344.764C1662.36 344.764 1659.4 343.968 1656.9 342.376C1654.4 340.768 1652.46 338.547 1651.09 335.714C1649.74 332.864 1649.06 329.584 1649.06 325.875C1649.06 322.182 1649.74 318.902 1651.09 316.037C1652.46 313.155 1654.35 310.902 1656.75 309.279C1659.17 307.639 1661.97 306.819 1665.14 306.819C1667.13 306.819 1669.04 307.185 1670.89 307.917C1672.74 308.634 1674.39 309.74 1675.86 311.237C1677.34 312.717 1678.51 314.588 1679.37 316.848C1680.23 319.093 1680.66 321.752 1680.66 324.824V326.926H1652V323.177H1676.31C1676.31 320.821 1675.83 318.703 1674.88 316.825C1673.94 314.93 1672.63 313.434 1670.94 312.335C1669.27 311.237 1667.33 310.687 1665.14 310.687C1662.81 310.687 1660.77 311.308 1659 312.55C1657.23 313.792 1655.85 315.432 1654.84 317.469C1653.86 319.507 1653.35 321.736 1653.34 324.156V326.4C1653.34 329.314 1653.84 331.861 1654.84 334.042C1655.86 336.207 1657.3 337.887 1659.17 339.081C1661.03 340.275 1663.23 340.872 1665.78 340.872C1667.52 340.872 1669.04 340.601 1670.34 340.06C1671.66 339.519 1672.77 338.794 1673.66 337.887C1674.57 336.963 1675.25 335.952 1675.71 334.854L1679.75 336.167C1679.19 337.712 1678.28 339.136 1677 340.442C1675.75 341.747 1674.17 342.798 1672.28 343.594C1670.4 344.374 1668.23 344.764 1665.78 344.764ZM1713.33 329.982V307.32H1717.58V344H1713.33V337.911H1713C1712.14 339.789 1710.78 341.357 1708.91 342.615C1707.05 343.857 1704.77 344.478 1702.08 344.478C1699.74 344.478 1697.67 343.968 1695.85 342.949C1694.04 341.914 1692.61 340.402 1691.58 338.412C1690.54 336.422 1690.02 333.978 1690.02 331.081V307.32H1694.28V330.818C1694.28 333.684 1695.12 335.992 1696.81 337.743C1698.49 339.479 1700.66 340.346 1703.3 340.346C1704.96 340.346 1706.55 339.948 1708.08 339.152C1709.61 338.356 1710.86 337.194 1711.85 335.666C1712.84 334.122 1713.33 332.227 1713.33 329.982ZM1743.28 307.32V311.022H1725.78V307.32H1743.28ZM1731.25 298.533H1735.52V334.424C1735.52 335.952 1735.78 337.154 1736.31 338.03C1736.84 338.89 1737.52 339.503 1738.36 339.869C1739.21 340.219 1740.11 340.394 1741.06 340.394C1741.62 340.394 1742.1 340.362 1742.49 340.299C1742.89 340.219 1743.24 340.139 1743.55 340.06L1744.45 343.904C1744.04 344.064 1743.53 344.207 1742.92 344.334C1742.32 344.478 1741.57 344.549 1740.68 344.549C1739.12 344.549 1737.62 344.207 1736.17 343.522C1734.73 342.838 1733.56 341.819 1732.63 340.466C1731.71 339.113 1731.25 337.433 1731.25 335.427V298.533ZM1763.18 344.836C1760.97 344.836 1758.95 344.406 1757.12 343.546C1755.28 342.671 1753.83 341.413 1752.75 339.773C1751.66 338.118 1751.12 336.112 1751.12 333.755C1751.12 331.941 1751.46 330.412 1752.15 329.171C1752.83 327.929 1753.8 326.91 1755.06 326.114C1756.32 325.318 1757.81 324.689 1759.53 324.227C1761.25 323.766 1763.14 323.408 1765.21 323.153C1767.26 322.898 1769 322.675 1770.42 322.484C1771.85 322.293 1772.94 321.991 1773.69 321.577C1774.44 321.163 1774.81 320.494 1774.81 319.571V318.711C1774.81 316.212 1774.06 314.246 1772.57 312.813C1771.09 311.364 1768.95 310.64 1766.17 310.64C1763.52 310.64 1761.37 311.221 1759.69 312.383C1758.04 313.545 1756.88 314.914 1756.21 316.49L1752.17 315.034C1753 313.028 1754.15 311.428 1755.61 310.234C1757.08 309.024 1758.72 308.156 1760.53 307.631C1762.34 307.09 1764.18 306.819 1766.05 306.819C1767.45 306.819 1768.9 307.002 1770.42 307.368C1771.94 307.734 1773.36 308.371 1774.67 309.279C1775.97 310.17 1777.03 311.42 1777.84 313.028C1778.65 314.62 1779.06 316.642 1779.06 319.093V344H1774.81V338.197H1774.55C1774.04 339.28 1773.28 340.33 1772.28 341.349C1771.28 342.368 1770.02 343.204 1768.51 343.857C1766.99 344.509 1765.22 344.836 1763.18 344.836ZM1763.75 340.943C1766.01 340.943 1767.97 340.442 1769.63 339.439C1771.28 338.436 1772.56 337.107 1773.45 335.451C1774.36 333.779 1774.81 331.941 1774.81 329.935V324.633C1774.49 324.936 1773.96 325.206 1773.21 325.445C1772.48 325.684 1771.63 325.899 1770.66 326.09C1769.7 326.265 1768.74 326.416 1767.79 326.544C1766.83 326.671 1765.97 326.783 1765.21 326.878C1763.14 327.133 1761.37 327.531 1759.91 328.072C1758.44 328.613 1757.32 329.362 1756.54 330.317C1755.76 331.256 1755.37 332.466 1755.37 333.947C1755.37 336.175 1756.17 337.903 1757.76 339.128C1759.35 340.338 1761.35 340.943 1763.75 340.943Z" fill="#355532"/>
<defs>
<linearGradient id="paint0_linear_1_40" x1="476.502" y1="197.029" x2="390.213" y2="338.219" gradientUnits="userSpaceOnUse">
<stop stop-color="#FF933F"/>
<stop offset="1" stop-color="#ED771F"/>
</linearGradient>
<linearGradient id="paint1_linear_1_40" x1="591.505" y1="67.1802" x2="520.31" y2="201.92" gradientUnits="userSpaceOnUse">
<stop stop-color="#FF933F"/>
<stop offset="1" stop-color="#ED771F"/>
</linearGradient>
<linearGradient id="paint2_linear_1_40" x1="302.5" y1="49" x2="48.6538" y2="223.811" gradientUnits="userSpaceOnUse">
<stop stop-color="#5D8642"/>
<stop offset="1" stop-color="#355532"/>
</linearGradient>
<linearGradient id="paint3_linear_1_40" x1="307.927" y1="72.6674" x2="275.272" y2="149.22" gradientUnits="userSpaceOnUse">
<stop stop-color="#5D8642"/>
<stop offset="1" stop-color="#355532"/>
</linearGradient>
<linearGradient id="paint4_linear_1_40" x1="425" y1="28.5" x2="289.5" y2="285" gradientUnits="userSpaceOnUse">
<stop stop-color="#FF9035"/>
<stop offset="1" stop-color="#E36104"/>
</linearGradient>
</defs>
</svg>
