<svg width="623" height="380" viewBox="0 0 623 380" fill="none" xmlns="http://www.w3.org/2000/svg">
<path d="M398.5 228C431.7 198.4 447 167.667 450.5 156L451.5 330C451.5 373.5 497 370.5 503.5 370.5C508.7 372.9 505.667 377.5 503.5 379.5H349C332.167 374.333 308.6 365.3 349 370.5C389.4 375.7 398.833 344.667 398.5 328.5V228Z" fill="url(#paint0_linear_1_61)"/>
<path d="M562 119.422C576.8 213.022 509.167 226.422 473.5 221.422C577 253.422 629 182.422 621.5 119.422C614 56.4216 558.5 39.9216 541 34.9217C511 26.3502 470.667 35.3333 442 37C444.5 42.5 445 46.5 449.5 54.9217C461.5 47.9217 546 30.9217 562 119.422Z" fill="url(#paint1_linear_1_61)"/>
<path d="M6.72132 378C3.12133 378 3.26764 374.97 3.51271 373.5C4.01271 370.5 6.01271 370 8.22133 370C9.38799 370 15.7213 369.9 31.7213 369.5C49.0127 369.068 55.0547 341.333 55.7213 330C56.5547 258.667 58.2213 107 58.2213 71C57.0127 48.5 18.5547 32.1667 3.72131 33C-0.98729 33 -1.4873 26.5 3.72131 26.5H98.7213L268.221 238C261 291 272 310.824 278.721 323.5C288 341 307.221 366.833 316.721 378H306.221C232.555 285.667 84.5213 100.1 81.7213 96.5C79.3213 95.3 78.7213 96.6667 78.7213 97.5C78.388 163.333 77.9213 302 78.7213 330C79.5213 358 96.5127 370 106.721 369.5H129.221C134.013 370.5 134.013 377 129.221 378H6.72132Z" fill="url(#paint2_linear_1_61)"/>
<path d="M318.221 145.5C315.021 147.5 305.888 158.333 301.721 163.5V84C301.721 37 251.943 31 247.721 31C243.5 31 243 25 247.721 24C252.443 23 366.943 24 372.221 24C377.5 24 377 31 372.221 31C367.443 31 318.221 37.5 318.221 84V145.5Z" fill="url(#paint3_linear_1_61)"/>
<path d="M369 165.5C292 237 282.5 293 294.5 333C259.5 268.5 273.5 211.993 345.5 140.5C416.5 70 414.5 32.5 412.5 0C434 43 431.5 107.464 369 165.5Z" fill="url(#paint4_linear_1_61)"/>
<path d="M398.859 202.5C321.859 274 312.359 330 324.359 370C289.359 305.5 303.359 248.993 375.359 177.5C446.359 107 444.359 69.5 442.359 37C463.859 80 461.359 144.464 398.859 202.5Z" fill="#E36104"/>
<defs>
<linearGradient id="paint0_linear_1_61" x1="476.502" y1="197.029" x2="390.213" y2="338.219" gradientUnits="userSpaceOnUse">
<stop stop-color="#FF933F"/>
<stop offset="1" stop-color="#ED771F"/>
</linearGradient>
<linearGradient id="paint1_linear_1_61" x1="591.505" y1="67.1802" x2="520.31" y2="201.92" gradientUnits="userSpaceOnUse">
<stop stop-color="#FF933F"/>
<stop offset="1" stop-color="#ED771F"/>
</linearGradient>
<linearGradient id="paint2_linear_1_61" x1="302.5" y1="49" x2="48.6538" y2="223.811" gradientUnits="userSpaceOnUse">
<stop stop-color="#5D8642"/>
<stop offset="1" stop-color="#355532"/>
</linearGradient>
<linearGradient id="paint3_linear_1_61" x1="307.927" y1="72.6674" x2="275.272" y2="149.22" gradientUnits="userSpaceOnUse">
<stop stop-color="#5D8642"/>
<stop offset="1" stop-color="#355532"/>
</linearGradient>
<linearGradient id="paint4_linear_1_61" x1="425" y1="28.5" x2="289.5" y2="285" gradientUnits="userSpaceOnUse">
<stop stop-color="#FF9035"/>
<stop offset="1" stop-color="#E36104"/>
</linearGradient>
</defs>
</svg>
